HIERARCHY
ROOT Hips
{
	OFFSET 0.000000 0.000000 0.000000 
	CHANNELS 6 Xposition Yposition Zposition Zrotation Yrotation Xrotation
	JOINT LeftUpLeg
	{
		OFFSET 1.363060 -1.794630 0.839290 
		CHANNELS 3 Zrotation Yrotation Xrotation
		JOINT LeftLeg
		{
			OFFSET 2.448110 -6.726130 0.000000 
			CHANNELS 3 Zrotation Yrotation Xrotation
			JOINT LeftFoot
			{
				OFFSET 2.562200 -7.039590 0.000000 
				CHANNELS 3 Zrotation Yrotation Xrotation
				JOINT LeftToeBase
				{
					OFFSET 0.157640 -0.433110 2.322550 
					CHANNELS 3 Zrotation Yrotation Xrotation
					End Site
					{
						OFFSET 0.000000 0.000000 0.000000 
					}
				}
			}
		}
	}
	JOINT RightUpLeg
	{
		OFFSET -1.305520 -1.794630 0.839290 
		CHANNELS 3 Zrotation Yrotation Xrotation
		JOINT RightLeg
		{
			OFFSET -2.542530 -6.985550 0.000000 
			CHANNELS 3 Zrotation Yrotation Xrotation
			JOINT RightFoot
			{
				OFFSET -2.568260 -7.056230 0.000000 
				CHANNELS 3 Zrotation Yrotation Xrotation
				JOINT RightToeBase
				{
					OFFSET -0.164730 -0.452590 2.363150 
					CHANNELS 3 Zrotation Yrotation Xrotation
					End Site
					{
						OFFSET 0.000000 0.000000 0.000000 
					}
				}
			}
		}
	}
	JOINT Spine
	{
		OFFSET 0.028270 2.035590 -0.193380 
		CHANNELS 3 Zrotation Yrotation Xrotation
		JOINT Spine1
		{
			OFFSET 0.056720 2.048850 -0.042750 
			CHANNELS 3 Zrotation Yrotation Xrotation
			JOINT Neck1
			{
				OFFSET -0.054170 1.746240 0.172020 
				CHANNELS 3 Zrotation Yrotation Xrotation
				JOINT Head
				{
					OFFSET 0.104070 1.761360 -0.123970 
					CHANNELS 3 Zrotation Yrotation Xrotation
					End Site
					{
						OFFSET 0.000000 0.000000 0.000000 
					}
				}
			}
			JOINT LeftArm
			{
				OFFSET 3.362410 1.200890 -0.311210 
				CHANNELS 3 Zrotation Yrotation Xrotation
				JOINT LeftForeArm
				{
					OFFSET 4.983000 -0.000000 -0.000000 
					CHANNELS 3 Zrotation Yrotation Xrotation
					JOINT LeftHand
					{
						OFFSET 3.483560 -0.000000 -0.000000 
						CHANNELS 3 Zrotation Yrotation Xrotation
						JOINT LeftHandIndex1
						{
							OFFSET 0.715260 -0.000000 -0.000000 
							CHANNELS 3 Zrotation Yrotation Xrotation
							End Site
							{
								OFFSET 0.000000 0.000000 0.000000 
							}
						}
					}
				}
			}
			JOINT RightArm
			{
				OFFSET -3.136600 1.374050 -0.404650 
				CHANNELS 3 Zrotation Yrotation Xrotation
				JOINT RightForeArm
				{
					OFFSET -5.241900 -0.000000 -0.000000 
					CHANNELS 3 Zrotation Yrotation Xrotation
					JOINT RightHand
					{
						OFFSET -3.444170 -0.000000 -0.000000 
						CHANNELS 3 Zrotation Yrotation Xrotation
						JOINT RightHandIndex1
						{
							OFFSET -0.622530 -0.000000 -0.000000 
							CHANNELS 3 Zrotation Yrotation Xrotation
							End Site
							{
								OFFSET 0.000000 0.000000 0.000000 
							}
						}
					}
				}
			}
		}
	}
}
MOTION
Frames: 13
Frame Time: 0.041667
0.317750 17.895077 -0.523789 -1.336589 2.569465 -2.985585 -19.379993 -13.004410 8.308659 -1.722645 0.836601 7.024199 -1.486948 7.311660 1.720813 0.336800 -3.729500 -10.317000 23.706722 10.488085 9.279473 0.350220 -2.278843 8.957891 1.734014 -10.511863 -4.137707 -0.042900 1.336100 -3.674100 0.872066 0.099445 5.132885 -1.172317 0.243199 -4.986706 20.746998 -15.244322 -1.235406 9.584400 -7.548800 3.541900 -89.078169 -2.369984 19.037383 15.225726 -18.253145 -1.892205 0.713809 1.158906 -6.718439 -7.125000 0.000000 0.000000 85.499307 -1.414988 43.177302 -17.185306 21.761548 -2.497348 -0.612605 0.358317 12.846012 7.125000 0.000000 0.000000 
0.319964 17.893970 -0.521907 -1.207369 2.604853 -2.942668 -19.518735 -12.991603 8.423324 -1.744281 0.739091 6.765777 -1.498990 7.376104 1.839301 0.318600 -3.628500 -10.033800 23.550317 10.501731 9.168601 0.340716 -2.323856 9.079013 1.727978 -10.484716 -4.193933 -0.048300 1.418500 -3.901100 0.846566 0.037577 5.097275 -1.137933 0.211215 -5.072887 20.435982 -14.800206 -2.393456 9.463800 -7.353500 2.961700 -89.076112 -2.251315 19.008921 15.203859 -18.218605 -1.885814 0.711808 1.160301 -6.697542 -7.125000 0.000000 0.000000 85.478686 -1.485364 43.198698 -17.214194 21.793992 -2.503915 -0.605323 0.354625 12.767337 7.125000 0.000000 0.000000 
0.320407 17.893748 -0.520246 -1.207156 2.642711 -2.924035 -19.518885 -13.048154 8.388966 -1.741119 0.762830 6.821646 -1.499714 7.381965 1.805618 0.327000 -3.675100 -10.164500 23.544318 10.446738 9.187980 0.346620 -2.293236 8.997728 1.740899 -10.545521 -4.136462 -0.056700 1.536600 -4.226600 0.863078 -0.009249 5.102508 -1.135028 0.183720 -5.106631 20.343414 -14.432211 -3.456102 9.460900 -7.189400 2.496400 -89.097809 -2.235948 18.931156 15.139870 -18.125145 -1.865815 0.719007 1.144851 -6.616824 -7.125000 0.000000 0.000000 85.396838 -1.523733 43.345087 -17.277144 21.867530 -2.521168 -0.602387 0.344563 12.538406 7.125000 0.000000 0.000000 
0.320407 17.894412 -0.518364 -1.249194 2.615414 -2.900328 -19.466357 -13.046854 8.325539 -1.737023 0.788794 6.884530 -1.506537 7.415532 1.723998 0.358900 -3.848500 -10.650900 23.592110 10.456018 9.216837 0.353219 -2.262868 8.914660 1.748007 -10.579362 -4.102958 -0.054400 1.505400 -4.140600 0.898674 -0.011690 5.141210 -1.138930 0.177329 -5.076783 20.447361 -14.102486 -4.334916 9.559200 -7.032400 2.168400 -89.134691 -2.340655 18.787116 15.048133 -17.995350 -1.837641 0.724149 1.127873 -6.438038 -7.125000 0.000000 0.000000 85.363659 -1.472117 43.268213 -17.290643 21.885696 -2.527403 -0.610795 0.346611 12.556287 7.125000 0.000000 0.000000 
0.321182 17.895852 -0.515264 -1.329697 2.567312 -2.863342 -19.371043 -13.031511 8.242023 -1.731457 0.813768 6.945693 -1.501680 7.390791 1.695448 0.366200 -3.887200 -10.759600 23.669125 10.488721 9.241826 0.360382 -2.231975 8.829688 1.745605 -10.566449 -4.098425 -0.047400 1.404900 -3.863600 0.934965 0.009211 5.159575 -1.171977 0.181649 -5.052935 20.487293 -13.777020 -5.098387 9.625200 -6.875500 1.870300 -89.162840 -2.375249 18.712663 14.993493 -17.915568 -1.822918 0.753509 1.119125 -6.302558 -7.125000 0.000000 0.000000 85.344044 -1.448410 43.195217 -17.297918 21.895845 -2.530758 -0.614128 0.351018 12.571526 7.125000 0.000000 0.000000 
0.322511 17.896627 -0.514378 -1.411397 2.527148 -2.837683 -19.271960 -13.005385 8.212979 -1.731045 0.800662 6.911497 -1.488859 7.326041 1.807984 0.352500 -3.814700 -10.556000 23.750153 10.526778 9.233991 0.362972 -2.223493 8.800177 1.753764 -10.608635 -4.050421 -0.045700 1.379800 -3.794600 0.959241 0.018282 5.129651 -1.226684 0.179770 -5.132889 20.485273 -13.433972 -6.001446 9.678400 -6.721900 1.481800 -89.186692 -2.312898 18.437312 14.981370 -17.898172 -1.817806 0.774490 1.103456 -6.108103 -7.125000 0.000000 0.000000 85.416752 -1.523695 42.956458 -17.310040 21.911473 -2.532411 -0.606238 0.350949 12.760451 7.125000 0.000000 0.000000 
0.323618 17.896516 -0.510946 -1.325154 2.482195 -2.829926 -19.367503 -12.931342 8.279814 -1.738082 0.764147 6.821155 -1.485945 7.312884 1.818916 0.317900 -3.624300 -10.022000 23.652132 10.577188 9.234429 0.361563 -2.227672 8.813767 1.760076 -10.637570 -4.029879 -0.048700 1.423500 -3.914900 0.945170 0.035116 5.117550 -1.224923 0.186995 -5.191886 20.419410 -13.121012 -6.854715 9.697000 -6.577700 1.120900 -89.217496 -2.290809 18.066236 14.948936 -17.855123 -1.804588 0.762630 1.090043 -5.993033 -7.125000 0.000000 0.000000 85.453576 -1.557769 42.794471 -17.291057 21.887109 -2.526055 -0.606264 0.347713 12.850815 7.125000 0.000000 0.000000 
0.324393 17.896073 -0.507293 -1.239253 2.486714 -2.792004 -19.460394 -12.921282 8.304570 -1.745072 0.739105 6.753260 -1.488281 7.328394 1.793577 0.335200 -3.720500 -10.291600 23.547478 10.586206 9.209543 0.360527 -2.229012 8.821270 1.749716 -10.582858 -4.057220 -0.050500 1.449600 -3.986900 0.955359 -0.007832 5.104705 -1.170392 0.165511 -5.209505 20.300092 -12.793409 -7.484265 9.687800 -6.413900 0.853900 -89.285242 -2.251352 17.752850 14.933986 -17.836509 -1.798575 0.753859 1.090493 -5.886505 -7.125000 0.000000 0.000000 85.390789 -1.583339 42.886575 -17.292319 21.882993 -2.525132 -0.607543 0.335167 12.732979 7.125000 0.000000 0.000000 
0.327493 17.895187 -0.504082 -1.194037 2.477045 -2.750787 -19.514483 -12.897628 8.329497 -1.752726 0.706923 6.666088 -1.496768 7.372772 1.808644 0.330200 -3.693200 -10.215000 23.479663 10.613006 9.170471 0.358625 -2.238296 8.846053 1.748681 -10.577952 -4.070968 -0.057700 1.549500 -4.262200 0.951787 -0.020054 5.102667 -1.177128 0.157204 -5.200212 20.138331 -12.509259 -8.092378 9.648800 -6.273900 0.587200 -89.306839 -2.243945 17.552138 14.877627 -17.756545 -1.783234 0.751883 1.101607 -5.748508 -7.125000 0.000000 0.000000 85.384493 -1.608161 42.866687 -17.317327 21.910953 -2.531379 -0.608384 0.321204 12.643475 7.125000 0.000000 0.000000 
0.330039 17.895962 -0.501757 -1.274189 2.444168 -2.706405 -19.429108 -12.895838 8.249738 -1.748167 0.728686 6.716229 -1.496715 7.373145 1.811490 0.329800 -3.690700 -10.208000 23.545471 10.642543 9.161007 0.363127 -2.220541 8.793557 1.751052 -10.590170 -4.048829 -0.052400 1.477800 -4.064500 0.957520 -0.022766 5.105936 -1.257338 0.149223 -5.187152 20.098453 -12.191900 -8.822444 9.669800 -6.124100 0.274300 -89.266254 -2.287575 17.401509 14.778041 -17.613362 -1.755812 0.750041 1.110338 -5.652547 -7.125000 0.000000 0.000000 85.437468 -1.636465 42.727545 -17.337244 21.938392 -2.540206 -0.619067 0.324244 12.704664 7.125000 0.000000 0.000000 
0.329486 17.897623 -0.500539 -1.357129 2.421086 -2.640447 -19.322805 -12.943840 8.060936 -1.732163 0.813368 6.923993 -1.484008 7.313743 1.718120 0.321000 -3.642000 -10.071500 23.625531 10.647864 9.178644 0.375750 -2.162166 8.631118 1.757363 -10.618285 -3.982730 -0.053200 1.488800 -4.095000 1.002124 -0.017278 5.092486 -1.264162 0.147424 -5.189484 20.079745 -11.869709 -9.503225 9.707900 -5.971100 -0.020000 -89.274138 -2.270936 17.425743 14.745642 -17.565088 -1.746096 0.752292 1.100786 -5.687685 -7.125000 0.000000 0.000000 85.440382 -1.682729 42.580054 -17.346170 21.949820 -2.546046 -0.631453 0.330286 12.794934 7.125000 0.000000 0.000000 
0.328046 17.899173 -0.499432 -1.440479 2.425990 -2.603161 -19.225714 -13.015668 7.895318 -1.715262 0.902655 7.143567 -1.478768 7.290817 1.641680 0.340800 -3.751400 -10.378400 23.710899 10.608757 9.232094 0.389065 -2.094337 8.448183 1.760595 -10.628340 -3.908986 -0.053300 1.489100 -4.095800 1.028870 -0.002841 5.104185 -1.302092 0.149970 -5.181298 19.955655 -11.600894 -10.115889 9.681600 -5.837900 -0.278300 -89.294305 -2.373536 17.212402 14.655912 -17.439096 -1.719986 0.764683 1.085801 -5.393647 -7.125000 0.000000 0.000000 85.453906 -1.659609 42.476466 -17.341311 21.945197 -2.544913 -0.632304 0.332100 12.749964 7.125000 0.000000 0.000000 
0.329375 17.898841 -0.495336 -1.521454 2.424236 -2.585944 -19.144068 -13.042008 7.835684 -1.707422 0.937974 7.234633 -1.468757 7.240678 1.594282 0.331900 -3.702300 -10.240700 23.789374 10.585231 9.273648 0.394804 -2.064665 8.368594 1.764634 -10.646095 -3.864866 -0.056000 1.526600 -4.199200 1.050522 0.013334 5.120934 -1.364290 0.152639 -5.161249 19.776934 -11.361274 -10.682950 9.627400 -5.717600 -0.520500 -89.307455 -2.468179 17.114494 14.569820 -17.317453 -1.696584 0.768339 1.084023 -5.252061 -7.125000 0.000000 0.000000 85.520972 -1.684071 42.223929 -17.338711 21.942918 -2.545293 -0.639366 0.329219 12.835508 7.125000 0.000000 0.000000 
